<svg xmlns="http://www.w3.org/2000/svg" width="48" height="48" viewBox="19 0 10 48"><defs><style>.a{fill:#fff;}.b{isolation:isolate;}</style></defs><g transform="translate(-10 -5.287)"><g transform="translate(66 10.287)"><path class="a" d="M660.009,343.554V319.793h-4.928l-7.106,13.519-7.034-13.519h-4.959v23.773h4.626V327.824l6.134,11.712h2.511l6.142-11.712v15.73Zm5.769,0h4.761l2.178-5.943h8.308l2.214,5.943H688l-9.05-23.773h-4.086Zm7.709-9.169,3.42-9.339,3.285,9.339Zm25.09,9.085a4.642,4.642,0,0,0,1.627-1.038,9.5,9.5,0,0,0,1.452-1.838,23.988,23.988,0,0,0,1.44-2.73l8.379-18.072h-4.856l-5.431,12.818-5.828-12.818h-4.995l8.729,17.469a4.4,4.4,0,0,1-1.258,1.981,2.7,2.7,0,0,1-1.674.559,3.757,3.757,0,0,1-1.357-.25,8.879,8.879,0,0,1-1.023-.452l-.6,3.816a3.454,3.454,0,0,0,.794.4,6.506,6.506,0,0,0,.92.265,8.839,8.839,0,0,0,.9.151,7.089,7.089,0,0,0,.793.052,5.735,5.735,0,0,0,1.984-.317m17.806.083h4.59v-19.7h10.422v19.712h4.59V319.793h-19.6Z" transform="translate(-635.982 -319.781)"/></g><g transform="translate(10 5.287)"><path class="a" d="M492.907,351.306h-48v-48h48Zm-45.6-2.4h43.2v-43.2h-43.2Z" transform="translate(-444.907 -303.306)"/><g transform="translate(7.273 9.454)"><g transform="translate(0.404 0.005)"><path class="a" d="M472.033,334.6q.342-.227.7-.419c0,2.062.042,4.4,0,6.43a3.469,3.469,0,0,0-1.36-1.477A2.854,2.854,0,0,1,470,337.64c-1.014-2.2-.524-5.459-2.011-7.375l-.1-.156a7.279,7.279,0,0,1,.937-.618l-.037-.352c-.262.03-.92.606-1.237.68-.134-.248-.455-.385-.636-.6.287-.263,1.707-1.015,2-1.263l.017-.015.052-.055c-.653.055-1.662.248-2.352.367l-5.815.921a7.152,7.152,0,0,0-1.175.213,7.1,7.1,0,0,0,.472.745l.989,1.489c.161.248.329.5.477.745.287-.1,1.237-.687,1.576-.874s.3-.3.95.32a5.728,5.728,0,0,1,.8.841c1.6,2.3.989,4.593,2.063,7a6.786,6.786,0,0,0,1.929,2.186c.156.117.351.221.495.335s.3.248.453.372a5.847,5.847,0,0,1,1.731,2.382,5.1,5.1,0,0,1,.364,2.6v8.5c.265-.131.495-.471.767-.605v.605h.44l.032-22.108a8.271,8.271,0,0,1,.989-.531v22.632a3.536,3.536,0,0,0,.448-.511c.853-1.037,1.694-2.119,2.562-3.142a2.6,2.6,0,0,1,.458-.526,6.8,6.8,0,0,1,.767.839l.772.874c.183.2.334.387.512.578s.336.37.522.566a14,14,0,0,0,1.123,1.052c.141.122.529.516.655.124a7.505,7.505,0,0,1-1.484-1.3c-.22-.231-.48-.479-.688-.722-.26-.3-.742-.829-.967-1.122-.1-.137-.22-.248-.321-.385s-.21-.248-.324-.382a15.868,15.868,0,0,1-1.217-1.606l-.272-.434c-.8-1.285-2.085-3.454-1.435-5.229.368-.993,1.432-1.427,2.253-1.985a14.84,14.84,0,0,0,1.237-.839,4.647,4.647,0,0,0,1.531-1.985c.95-2.293,1.276-6.313,3.183-8.055a2.97,2.97,0,0,1,3.171-.553,1.552,1.552,0,0,1,.742.68c-.2.1-.626.477-.8.5-.408.042-1.036-.769-2.038-.131-1.291.821-1.744,2.789-2.283,4.305-.109.308-.186.685-.275,1.02a14.6,14.6,0,0,1-1.046,2.876,12.562,12.562,0,0,1-1.009,1.608c-.566.794-2.226,1.546-3.092,2.169a3.48,3.48,0,0,0-.591.69,2.112,2.112,0,0,0-.23,1.074,7.977,7.977,0,0,0,.712,1.9,16.774,16.774,0,0,0,.977,1.67,14.652,14.652,0,0,0,1.078,1.556c.193.216.383.536.571.744.22.248.364.5.589.744.418.469.8.928,1.259,1.357l1.041.926a2.983,2.983,0,0,0,.391.3,6.042,6.042,0,0,0,.675-.745l1.323-1.489c.136-.149.208-.248.327-.382a3.334,3.334,0,0,0,.336-.382l-.955-.829a14.327,14.327,0,0,1-1.331-1.345c-.119-.136-.247-.355-.381-.5a10.309,10.309,0,0,1-.824-.968,13.49,13.49,0,0,1-2.473-4.665c-.047-.211-.158-.618-.037-.789l2.226-2.248a9.127,9.127,0,0,0,1.872-2.571c.247-.635,1.041-2.824,1.177-3.32l6.478.332.069-.248-6.431-.34a3.924,3.924,0,0,1,.319-.9l6.344.318.077-.176c.272-.945,1.652-5.417,1.731-5.8a18,18,0,0,0-1.731,1.1c-.336.2-.364.042-.633-.107a4.484,4.484,0,0,0-4.474.337c-1.608.9-3.354,1.834-4.121,3.519a22.442,22.442,0,0,0-1.435,4.293,8.426,8.426,0,0,1-1.781,3.968,4.638,4.638,0,0,1-1.115.8c-.035-1.591,0-3.623,0-5.273,0-.633-.027-5.658,0-5.832a15.118,15.118,0,0,1,1.462-.913l.4-.209c.087-.054.069-.03.1-.112-.082-.151-2.8-2.08-3.171-2.395a2.643,2.643,0,0,0-.475-.34,9,9,0,0,1-.509.928c-.185.325-.344.618-.527.945l-1.563,2.819c-.173.318-.354.63-.522.951-.324.623-.742,1.241-1.039,1.881" transform="translate(-459.632 -327.071)"/></g><g transform="translate(0 3.608)"><path class="a" d="M458,341.732c.166.151.872,1.175,1.05,1.438l1.035,1.463c.154-.047,1.877-1.019,2.1-1.133a2.3,2.3,0,0,1,.624.674c1.429,2.311.911,5.812,2.749,8.017a2.914,2.914,0,0,0,.664.677,13.324,13.324,0,0,1,2.773,2.636,4.473,4.473,0,0,1,.718,1.984v8.532a7.751,7.751,0,0,1-.025.975h.3c-.077-.558-.027-4.711-.027-5.681v-3.851a4.832,4.832,0,0,0-.99-2.418,9.464,9.464,0,0,0-1.384-1.379l-1.5-1.24a7.2,7.2,0,0,1-.869-1.22c-1.189-2.12-.854-5.1-2.283-7.322a7.687,7.687,0,0,0-.678-.7c-.047.042-1.981,1.1-2.068,1.118-.166-.208-.334-.451-.5-.674l-.743-1.046c-.149-.218-.654-.9-.721-1.069a.358.358,0,0,0-.213.218" transform="translate(-458.002 -341.511)"/></g><g transform="translate(11.295)"><path class="a" d="M503.672,334.544h.307l4.185-7.27c.059-.106.107-.149.151-.223H508c-.3.584-.743,1.265-1.07,1.87l-2.164,3.746c-.176.317-.367.624-.537.931Z" transform="translate(-503.672 -327.051)"/></g></g></g><g class="b" transform="translate(66 38.287)"><g class="b"><path class="a" d="M646.179,408.186a5.83,5.83,0,0,1-7.5.007,4.461,4.461,0,0,1,.015-6.663,5.827,5.827,0,0,1,7.5-.006,4.46,4.46,0,0,1-.014,6.662Zm-5.871-1.3a2.933,2.933,0,0,0,2.142.831,2.9,2.9,0,0,0,2.128-.824,2.871,2.871,0,0,0-.014-4.055,2.934,2.934,0,0,0-2.143-.83,2.9,2.9,0,0,0-2.128.824,2.87,2.87,0,0,0,.014,4.054Z" transform="translate(-637.193 -399.555)"/><path class="a" d="M664.026,404.213v7.555h-2.143v-2.889h-2.636v2.889H657.1v-7.555h2.143v2.9h2.636v-2.9Z" transform="translate(-644.913 -401.937)"/><path class="a" d="M671.86,404.213h6.075v7.555h-2.143v-5.723h-1.917a23.88,23.88,0,0,1-.113,2.523,9.449,9.449,0,0,1-.311,1.677,2.361,2.361,0,0,1-.55,1,1.842,1.842,0,0,1-.761.479,3.449,3.449,0,0,1-1.014.127,4.439,4.439,0,0,1-1.086-.127l.141-1.733a2.792,2.792,0,0,0,.452.043.821.821,0,0,0,.536-.162,1.613,1.613,0,0,0,.374-.733,8.079,8.079,0,0,0,.246-1.762Q671.86,406.186,671.86,404.213Z" transform="translate(-651.314 -401.937)"/><path class="a" d="M687.92,411.856a2.793,2.793,0,0,1-1.854-.62,2.124,2.124,0,0,1-.74-1.72,2.1,2.1,0,0,1,.825-1.8,3.669,3.669,0,0,1,2.22-.606,5.652,5.652,0,0,1,1.846.31v-.127q0-1.381-1.621-1.381a6.069,6.069,0,0,0-2.086.409l-.536-1.635a7.222,7.222,0,0,1,2.932-.606,3.467,3.467,0,0,1,2.551.846,3.272,3.272,0,0,1,.818,2.411v4.383H690.2V410.9A2.919,2.919,0,0,1,687.92,411.856Zm.649-1.48a1.877,1.877,0,0,0,1.213-.374,1.17,1.17,0,0,0,.465-.951v-.381a3.2,3.2,0,0,0-1.367-.282,1.868,1.868,0,0,0-1.092.275.915.915,0,0,0-.388.8.8.8,0,0,0,.324.67A1.363,1.363,0,0,0,688.569,410.376Z" transform="translate(-657.865 -401.884)"/><path class="a" d="M706.725,402.023V409h-2.072V404.94L701.706,409h-2.016v-6.98h2.072V406.1l2.946-4.076Zm-1.854-1.185a2.716,2.716,0,0,1-3.2,0,2.247,2.247,0,0,1-.768-1.458l1.255-.208a1.147,1.147,0,0,0,2.227,0l1.255.208A2.251,2.251,0,0,1,704.871,400.838Z" transform="translate(-664.036 -399.172)"/><path class="a" d="M721.229,404.213v7.555h-2.142v-2.889h-2.635v2.889h-2.142v-7.555h2.142v2.9h2.635v-2.9Z" transform="translate(-670.311 -401.937)"/><path class="a" d="M746.9,404.213v7.555H735.648v-7.555h2.143v5.723h2.41v-5.723h2.142v5.723h2.4v-5.723Z" transform="translate(-679.661 -401.937)"/><path class="a" d="M757.148,411.768v-7.555h2.142v3.1l2.706-3.1h2.467l-2.776,3.1,3.129,4.454h-2.537l-2.016-2.876-.973,1.057v1.819Z" transform="translate(-688.746 -401.937)"/><path class="a" d="M777.614,410.706a4.308,4.308,0,0,1-5.835.007,3.921,3.921,0,0,1,.013-5.588,4.307,4.307,0,0,1,5.835-.007,3.921,3.921,0,0,1-.014,5.588Zm-2.9-.7a1.818,1.818,0,0,0,1.424-.6,2.149,2.149,0,0,0,.536-1.487,2.114,2.114,0,0,0-.557-1.472,1.844,1.844,0,0,0-1.43-.614,1.816,1.816,0,0,0-1.424.6,2.149,2.149,0,0,0-.535,1.487,2.112,2.112,0,0,0,.557,1.473A1.842,1.842,0,0,0,774.716,410Z" transform="translate(-694.563 -401.848)"/><path class="a" d="M786.82,404.213H792.9v7.555h-2.142v-5.723h-1.917a23.82,23.82,0,0,1-.113,2.523,9.457,9.457,0,0,1-.31,1.677,2.372,2.372,0,0,1-.549,1,1.85,1.85,0,0,1-.761.479,3.458,3.458,0,0,1-1.015.127,4.442,4.442,0,0,1-1.086-.127l.141-1.733a2.789,2.789,0,0,0,.452.043.82.82,0,0,0,.535-.162,1.61,1.61,0,0,0,.373-.733,8.063,8.063,0,0,0,.246-1.762Q786.821,406.186,786.82,404.213Z" transform="translate(-701.311 -401.937)"/><path class="a" d="M802.881,411.856a2.792,2.792,0,0,1-1.854-.62,2.124,2.124,0,0,1-.74-1.72,2.1,2.1,0,0,1,.825-1.8,3.669,3.669,0,0,1,2.22-.606,5.651,5.651,0,0,1,1.846.31v-.127q0-1.381-1.621-1.381a6.075,6.075,0,0,0-2.086.409l-.535-1.635a7.222,7.222,0,0,1,2.932-.606,3.466,3.466,0,0,1,2.551.846,3.27,3.27,0,0,1,.818,2.411v4.383h-2.073V410.9A2.916,2.916,0,0,1,802.881,411.856Zm.648-1.48a1.875,1.875,0,0,0,1.213-.374,1.168,1.168,0,0,0,.465-.951v-.381a3.2,3.2,0,0,0-1.367-.282,1.868,1.868,0,0,0-1.092.275.914.914,0,0,0-.387.8.8.8,0,0,0,.324.67A1.361,1.361,0,0,0,803.529,410.376Z" transform="translate(-707.237 -401.884)"/></g></g></g></svg>
